<svg xmlns="http://www.w3.org/2000/svg" width="32" height="32" viewBox="0 0 32 32">
  <defs>
    <linearGradient id="bg" x1="0%" y1="0%" x2="100%" y2="100%">
      <stop offset="0%" style="stop-color:#3b82f6;stop-opacity:1" />
      <stop offset="100%" style="stop-color:#8b5cf6;stop-opacity:1" />
    </linearGradient>
    <linearGradient id="screen" x1="0%" y1="0%" x2="100%" y2="100%">
      <stop offset="0%" style="stop-color:#1e293b;stop-opacity:1" />
      <stop offset="100%" style="stop-color:#334155;stop-opacity:1" />
    </linearGradient>
  </defs>
  
  <!-- Background -->
  <rect width="32" height="32" rx="6" fill="url(#bg)"/>
  
  <!-- Video camera body -->
  <rect x="4" y="8" width="18" height="12" rx="2" fill="url(#screen)" stroke="#64748b" stroke-width="0.5"/>
  
  <!-- Camera lens -->
  <circle cx="10" cy="14" r="3" fill="#1e293b" stroke="#64748b" stroke-width="0.5"/>
  <circle cx="10" cy="14" r="2" fill="#0f172a"/>
  <circle cx="10" cy="14" r="1" fill="#3b82f6" opacity="0.6"/>
  
  <!-- Viewfinder -->
  <rect x="15" y="10" width="5" height="3" rx="0.5" fill="#0f172a" stroke="#64748b" stroke-width="0.3"/>
  
  <!-- Frame extraction indicator - three small rectangles representing frames -->
  <rect x="24" y="6" width="3" height="2" rx="0.3" fill="#10b981"/>
  <rect x="24" y="9" width="3" height="2" rx="0.3" fill="#10b981" opacity="0.8"/>
  <rect x="24" y="12" width="3" height="2" rx="0.3" fill="#10b981" opacity="0.6"/>
  
  <!-- Arrow indicating extraction -->
  <path d="M20 14 L23 14 M21.5 12.5 L23 14 L21.5 15.5" stroke="#10b981" stroke-width="1" fill="none" stroke-linecap="round" stroke-linejoin="round"/>
  
  <!-- Record button -->
  <circle cx="18" cy="17" r="1" fill="#ef4444"/>
</svg>